<svg xmlns="http://www.w3.org/2000/svg" xmlns:xlink="http://www.w3.org/1999/xlink" width="24" height="24" version="1.1" viewBox="0 0 24 24"><title>Icons/Ellipses/ellipses-24</title><desc>Created with Sketch.</desc><defs><path id="path-1" d="M6,10 C4.9,10 4,10.9 4,12 C4,13.1 4.9,14 6,14 C7.1,14 8,13.1 8,12 C8,10.9 7.1,10 6,10 Z M18,10 C16.9,10 16,10.9 16,12 C16,13.1 16.9,14 18,14 C19.1,14 20,13.1 20,12 C20,10.9 19.1,10 18,10 Z M12,10 C10.9,10 10,10.9 10,12 C10,13.1 10.9,14 12,14 C13.1,14 14,13.1 14,12 C14,10.9 13.1,10 12,10 Z"/><rect id="path-3" width="24" height="24" x="0" y="0"/></defs><g id="Icons/Ellipses/ellipses-24" fill="none" fill-rule="evenodd" stroke="none" stroke-width="1"><mask id="mask-2" fill="#fff"><use xlink:href="#path-1"/></mask><use id="Shape" fill="#62656A" fill-rule="nonzero" xlink:href="#path-1"/><g id="Color/Dark/Black" mask="url(#mask-2)"><mask id="mask-4" fill="#fff"><use xlink:href="#path-3"/></mask><use id="fill" fill="#000" fill-rule="evenodd" xlink:href="#path-3"/></g></g></svg>